<?xml version="1.0" encoding="utf-8"?>
<!-- Generator: Adobe Illustrator 26.0.2, SVG Export Plug-In . SVG Version: 6.00 Build 0)  -->
<svg version="1.1" id="Layer_1" xmlns="http://www.w3.org/2000/svg" xmlns:xlink="http://www.w3.org/1999/xlink" x="0px" y="0px"
	 viewBox="0 0 30 9.1" style="enable-background:new 0 0 30 9.1;" xml:space="preserve">
<g>
	<path d="M1.4,7.6h-1.5V1.5h1.5v-1.5h10.7v1.6H3v6h9.1v1.6H1.4V7.6z"/>
	<path d="M16.6,9.1h-3.1v-9.2h3.1v3h6v-3h3.1v9.2h-3.1V4.6h-6V9.1z"/>
	<path d="M29.4,0.5C29.8,0.9,30,1.3,30,1.9c0,0.5-0.2,1-0.6,1.4c-0.4,0.4-0.8,0.5-1.3,0.5c-0.5,0-1-0.2-1.4-0.6s-0.6-0.8-0.6-1.4
		c0-0.6,0.2-1,0.6-1.4c0.4-0.3,0.8-0.5,1.3-0.5C28.6-0.1,29.1,0.1,29.4,0.5z M28.1,0.3c-0.4,0-0.8,0.2-1.1,0.5
		c-0.3,0.3-0.5,0.7-0.5,1.1c0,0.4,0.2,0.8,0.5,1.1c0.3,0.3,0.7,0.5,1.1,0.5c0.4,0,0.8-0.2,1.1-0.5c0.3-0.3,0.5-0.7,0.5-1.1
		c0-0.4-0.2-0.8-0.5-1.1C28.9,0.4,28.5,0.3,28.1,0.3z M27.8,2.2v0.8h-0.6V0.8c0.1,0,0.3,0,0.6,0c0.3,0,0.4,0,0.4,0
		c0.2,0,0.3,0,0.4,0.1C28.9,1,29,1.2,29,1.4c0,0.2,0,0.3-0.1,0.4S28.6,1.9,28.5,2c0.1,0,0.2,0.1,0.3,0.1c0.1,0.1,0.2,0.3,0.2,0.5
		v0.2c0,0,0,0,0,0.1c0,0,0,0,0,0.1l0,0.1h-0.5c0-0.1,0-0.2,0-0.3c0-0.1,0-0.2,0-0.3c0-0.1-0.1-0.1-0.2-0.2c0,0-0.1,0-0.2,0l-0.1,0
		H27.8z M28,1.8c0.1,0,0.2,0,0.3-0.1s0.1-0.1,0.1-0.3s-0.1-0.2-0.2-0.2c-0.1,0-0.2,0-0.3,0h-0.1v0.6H28z"/>
</g>
</svg>
